<?xml version="1.0" encoding="UTF-8"?><svg xmlns="http://www.w3.org/2000/svg" xmlns:xlink="http://www.w3.org/1999/xlink" contentScriptType="text/ecmascript" width="375pt" zoomAndPan="magnify" contentStyleType="text/css" viewBox="0 0 375 309.749993" height="309.749993pt" preserveAspectRatio="xMidYMid meet" version="1.2"><defs><clipPath xml:id="clip1" id="clip1"><path d="M 8 8 L 374.847656 8 L 374.847656 241 L 8 241 Z M 8 8 "/></clipPath><clipPath xml:id="clip2" id="clip2"><path d="M 146 240 L 238 240 L 238 309.472656 L 146 309.472656 Z M 146 240 "/></clipPath></defs><g xml:id="surface1" id="surface1"><g clip-rule="nonzero" clip-path="url(#clip1)"><path style=" stroke:none;fill-rule:nonzero;fill:rgb(30.979919%,84.709167%,86.669922%);fill-opacity:1;" d="M 327.546875 108.863281 L 323.121094 107.511719 L 323.230469 102.113281 C 323.246094 69.871094 293.683594 44.53125 260.320312 51.722656 C 256.109375 52.632812 252.054688 54.238281 248.226562 56.207031 L 242.632812 59.070312 L 241.019531 55.773438 C 229.753906 32.753906 208.984375 15.144531 183.878906 9.875 C 137.25 0.0976562 95.679688 32.902344 87.78125 76.921875 L 87.394531 79.097656 L 82.675781 79.488281 C 35.621094 83.46875 0.160156 128.585938 10.894531 177.210938 C 19.152344 214.613281 53.949219 240.214844 92.285156 240.214844 L 112.851562 240.214844 C 118.003906 240.214844 123.191406 240.3125 128.023438 240.148438 C 142.109375 239.667969 150.851562 224.601562 144.550781 212.011719 C 126.648438 212.011719 113.808594 193.628906 121.152344 177.316406 C 122.652344 173.976562 124.78125 170.847656 127.527344 168.105469 L 169.949219 125.714844 C 182.085938 113.589844 201.75 113.589844 213.882812 125.714844 L 256.308594 168.105469 C 259.050781 170.84375 261.171875 173.96875 262.679688 177.300781 C 270.039062 193.617188 257.175781 212.011719 239.265625 212.011719 C 232.847656 224.847656 242.042969 239.894531 256.398438 240.207031 C 260.117188 240.289062 263.910156 240.214844 267.484375 240.214844 L 305.128906 240.214844 C 342.132812 240.214844 374.878906 210.003906 374.855469 173.019531 C 374.828125 143.398438 355.8125 117.625 327.546875 108.863281 Z M 327.546875 108.863281 "/></g><g clip-rule="nonzero" clip-path="url(#clip2)"><path style=" stroke:none;fill-rule:nonzero;fill:rgb(30.979919%,84.709167%,86.669922%);fill-opacity:1;" d="M 228.910156 256.863281 L 155.121094 256.863281 C 150.53125 256.863281 146.8125 253.148438 146.8125 248.5625 L 146.8125 248.546875 C 146.8125 243.957031 150.53125 240.242188 155.121094 240.242188 L 228.910156 240.242188 C 233.503906 240.242188 237.222656 243.957031 237.222656 248.546875 L 237.222656 248.5625 C 237.222656 253.148438 233.496094 256.863281 228.910156 256.863281 Z M 237.144531 274.796875 C 237.144531 270.207031 233.429688 266.492188 228.835938 266.492188 L 155.046875 266.492188 C 150.457031 266.492188 146.738281 270.207031 146.738281 274.796875 C 146.738281 279.382812 150.457031 283.097656 155.046875 283.097656 L 228.835938 283.097656 C 233.429688 283.097656 237.144531 279.382812 237.144531 274.796875 Z M 237.144531 301.03125 C 237.144531 296.441406 233.429688 292.726562 228.835938 292.726562 L 155.046875 292.726562 C 150.457031 292.726562 146.738281 296.441406 146.738281 301.03125 C 146.738281 305.617188 150.457031 309.332031 155.046875 309.332031 L 228.835938 309.332031 C 233.429688 309.332031 237.144531 305.617188 237.144531 301.03125 Z M 237.144531 301.03125 "/></g></g></svg>